<svg width="100" height="100" fill="none" xmlns="http://www.w3.org/2000/svg"><path d="M20 10c0 5.523-4.477 10-10 10S0 15.523 0 10 4.477 0 10 0s10 4.477 10 10zM20 50c0 5.523-4.477 10-10 10S0 55.523 0 50s4.477-10 10-10 10 4.477 10 10zM20 90c0 5.523-4.477 10-10 10S0 95.523 0 90s4.477-10 10-10 10 4.477 10 10zM60 10c0 5.523-4.477 10-10 10s-10-4.477-10-10S44.477 0 50 0s10 4.477 10 10zM60 50c0 5.523-4.477 10-10 10s-10-4.477-10-10 4.477-10 10-10 10 4.477 10 10zM60 90c0 5.523-4.477 10-10 10s-10-4.477-10-10 4.477-10 10-10 10 4.477 10 10zM100 10c0 5.523-4.477 10-10 10s-10-4.477-10-10S84.477 0 90 0s10 4.477 10 10zM100 50c0 5.523-4.477 10-10 10s-10-4.477-10-10 4.477-10 10-10 10 4.477 10 10zM100 90c0 5.523-4.477 10-10 10s-10-4.477-10-10 4.477-10 10-10 10 4.477 10 10z" fill="#141414"/></svg>